<?xml version="1.0" encoding="UTF-8" standalone="no"?>
<svg
   viewBox="0 0 16 16"
   version="1.1"
   id="svg5"
   sodipodi:docname="PackageIcon.svg"
   inkscape:version="1.3 (0e150ed6c4, 2023-07-21)"
   inkscape:export-filename="PackageIcon640.png"
   inkscape:export-xdpi="3840"
   inkscape:export-ydpi="3840"
   xmlns:inkscape="http://www.inkscape.org/namespaces/inkscape"
   xmlns:sodipodi="http://sodipodi.sourceforge.net/DTD/sodipodi-0.dtd"
   xmlns="http://www.w3.org/2000/svg"
   xmlns:svg="http://www.w3.org/2000/svg">
  <sodipodi:namedview
     id="namedview5"
     pagecolor="#ffffff"
     bordercolor="#000000"
     borderopacity="0.25"
     inkscape:showpageshadow="2"
     inkscape:pageopacity="0.0"
     inkscape:pagecheckerboard="0"
     inkscape:deskcolor="#d1d1d1"
     inkscape:zoom="38.03125"
     inkscape:cx="3.9309778"
     inkscape:cy="11.424815"
     inkscape:window-width="2560"
     inkscape:window-height="1494"
     inkscape:window-x="-11"
     inkscape:window-y="-11"
     inkscape:window-maximized="1"
     inkscape:current-layer="svg5" />
  <defs
     id="defs1">
    <style
       id="style1">.canvas{fill: none; opacity: 0;}.light-defaultgrey-10{fill: #212121; opacity: 0.1;}.light-defaultgrey{fill: #212121; opacity: 1;}.light-blue{fill: #005dba; opacity: 1;}.cls-1{opacity:0.75;}</style>
  </defs>
  <title
     id="title1">BuildSolution</title>
  <g
     id="canvas">
    <path
       class="canvas"
       d="M16,16H0V0H16Z"
       id="path1" />
  </g>
  <g
     id="level-1"
     transform="matrix(0.7389365,0,0,0.68797589,-0.00187816,5.2062449)">
    <g
       class="cls-1"
       id="g3">
      <path
         class="light-defaultgrey-10"
         d="m 14,5 v 9 H 2 V 5 H 3.878 L 6.732,7.854 H 8.268 L 11.122,5 Z"
         id="path2" />
      <path
         class="light-defaultgrey"
         d="m 15,5 v 9.5 L 14.5,15 H 1.5 L 1,14.5 V 5 h 1 v 9 H 14 V 5 Z"
         id="path3" />
    </g>
    <path
       class="light-defaultgrey"
       d="m 11,11 v 2 H 9 v -2 z m -4,0 v 2 H 5 V 11 Z M 5,8 v 2 H 3 V 8 Z m 4,0 v 2 H 7 V 8 Z m 4,0 v 2 H 11 V 8 Z"
       id="path4" />
    <path
       class="light-blue"
       d="m 10.354,4.354 -2.5,2.5 H 7.146 L 4.646,4.354 5.354,3.647 7,5.293 V 0 H 8 V 5.293 L 9.646,3.647 Z"
       id="path5" />
  </g>
  <g
     id="level-1-8"
     transform="matrix(0.68686039,0,0,0.68686039,5.9049078,-0.05087025)">
    <g
       class="cls-1"
       id="g2"
       style="opacity:0.75" />
    <path
       class="light-defaultgrey-10"
       d="m 13.5,11.5 h -10 v -8 h 10 z"
       id="path3-8"
       style="opacity:0.1;fill:#212121" />
    <path
       class="light-defaultgrey"
       d="M 13.5,2 H 12 V 1 H 11 V 2 H 6 V 1 H 5 V 2 H 3.5 L 3,2.5 v 9 L 3.5,12 h 10 L 14,11.5 v -9 z M 13,11 H 4 V 4 h 9 z"
       id="path4-1"
       style="opacity:1;fill:#212121" />
    <path
       class="light-defaultgrey"
       d="M 11.497666,10 H 8.4976623 V 9.418 a 1.517,1.517 0 0 1 0.109,-0.57 1.533,1.533 0 0 1 0.258,-0.422 5.46,5.46 0 0 1 0.391,-0.414 q 0.219,-0.212 0.429,-0.391 A 4.511,4.511 0 0 0 10.084663,7.238 2.993,2.993 0 0 0 10.384665,6.871 0.694,0.694 0 0 0 10.497666,6.5 0.5,0.5 0 0 0 9.6846623,6.109 a 0.543,0.543 0 0 0 -0.179,0.289 l -0.977,-0.2 a 1.372,1.372 0 0 1 0.18,-0.476 1.292,1.292 0 0 1 0.344,-0.375 1.962,1.962 0 0 1 0.445,-0.247 1.323,1.323 0 0 1 0.5,-0.1 1.474,1.474 0 0 1 0.5860037,0.117 1.5,1.5 0 0 1 0.8,0.8 1.474,1.474 0 0 1 0.114,0.583 1.639,1.639 0 0 1 -0.086,0.547 1.738,1.738 0 0 1 -0.242,0.453 3.506,3.506 0 0 1 -0.344,0.4 q -0.187,0.187 -0.4,0.36 A 5.09,5.09 0 0 0 10.025662,8.619 Q 9.8386623,8.807 9.6586623,9.002 h 1.8390037 z"
       id="path5-6"
       style="opacity:1;fill:#212121"
       inkscape:transform-center-x="0.23664749"
       inkscape:transform-center-y="-0.052588332" />
    <path
       class="light-defaultgrey"
       d="m 6.4062534,6.1902817 a 3.152,3.152 0 0 1 -0.53,0.248 1.688,1.688 0 0 1 -0.57,0.1 v -1 a 0.924,0.924 0 0 0 0.242,-0.047 2.486,2.486 0 0 0 0.313,-0.117 1.5,1.5 0 0 0 0.281,-0.164 0.673,0.673 0 0 0 0.172,-0.172 h 0.992 v 5.0000003 h -0.9 z"
       id="path6"
       style="opacity:1;fill:#212121" />
  </g>
</svg>
